<?xml version="1.0" standalone="no"?>
<!DOCTYPE svg PUBLIC "-//W3C//DTD SVG 20010904//EN"
 "http://www.w3.org/TR/2001/REC-SVG-20010904/DTD/svg10.dtd">
<svg version="1.0" xmlns="http://www.w3.org/2000/svg"
 width="1366.000000pt" height="1168.000000pt" viewBox="0 0 1366.000000 1168.000000"
 preserveAspectRatio="xMidYMid meet">

<g transform="translate(0.000000,1168.000000) scale(0.100000,-0.100000)"
fill="#000000" stroke="none">
<path d="M0 5840 l0 -5840 6830 0 6830 0 0 5840 0 5840 -6830 0 -6830 0 0
-5840z m4691 4864 c8 -6 37 -17 64 -23 28 -7 59 -17 70 -21 123 -52 152 -65
161 -77 6 -7 13 -10 16 -7 6 5 83 -51 133 -96 77 -71 94 -89 130 -140 45 -62
106 -160 108 -175 1 -5 6 -13 10 -16 5 -4 10 -18 10 -33 1 -14 5 -26 8 -26 3
0 11 -18 18 -41 26 -86 39 -200 40 -349 1 -85 3 -155 5 -157 1 -2 1411 -4
3132 -5 2623 -3 3138 -5 3186 -17 34 -8 55 -18 51 -24 -3 -6 -1 -7 5 -3 13 8
44 -4 182 -72 82 -41 109 -61 201 -152 109 -108 163 -176 152 -193 -3 -6 -1
-7 5 -4 6 4 23 -24 42 -70 17 -43 35 -87 40 -98 5 -11 12 -35 15 -52 4 -18 11
-33 16 -33 6 0 9 -6 8 -12 -1 -7 2 -22 7 -33 5 -12 9 -1424 9 -3466 0 -3433 0
-3447 -20 -3470 -11 -12 -14 -19 -6 -14 16 9 12 -5 -36 -128 -112 -286 -298
-468 -573 -559 -93 -32 -178 -52 -206 -50 -12 1 -27 -5 -34 -13 -7 -8 -24 -15
-38 -15 -31 0 -18 16 18 23 14 2 3 5 -25 5 -31 1 -45 -2 -37 -7 11 -7 10 -10
-3 -15 -25 -9 -55 -7 -55 4 0 6 10 11 23 11 l22 2 -23 4 c-12 2 -29 -3 -38
-11 -17 -18 -64 -22 -64 -6 0 6 8 11 18 11 16 1 16 2 0 6 -10 2 -25 -3 -34
-11 -17 -18 -64 -22 -64 -6 0 6 8 11 18 11 16 1 16 2 0 6 -10 2 -25 -3 -34
-11 -17 -18 -64 -22 -64 -6 0 6 8 11 18 11 16 1 16 2 0 6 -10 2 -25 -3 -34
-11 -17 -18 -64 -22 -64 -6 0 6 8 11 18 11 16 1 16 2 0 6 -10 2 -25 -3 -34
-11 -17 -18 -64 -22 -64 -6 0 6 8 11 18 11 16 1 16 2 0 6 -10 2 -25 -3 -34
-11 -17 -18 -64 -22 -64 -6 0 6 8 11 18 11 16 1 16 2 0 6 -10 2 -25 -3 -34
-11 -17 -18 -64 -22 -64 -6 0 6 8 11 18 11 16 1 16 2 0 6 -10 2 -25 -3 -34
-11 -17 -18 -64 -22 -64 -6 0 6 8 11 18 11 16 1 16 2 0 6 -10 2 -25 -3 -34
-11 -17 -18 -64 -22 -64 -6 0 6 8 11 18 11 16 1 16 2 0 6 -10 2 -25 -3 -34
-11 -17 -18 -64 -22 -64 -6 0 6 8 11 18 11 16 1 16 2 0 6 -10 2 -25 -3 -34
-11 -17 -18 -64 -22 -64 -6 0 6 8 11 18 11 16 1 16 2 0 6 -10 2 -25 -3 -34
-11 -17 -18 -64 -22 -64 -6 0 6 8 11 18 11 16 1 16 2 0 6 -10 2 -25 -3 -34
-11 -17 -18 -64 -22 -64 -6 0 6 8 11 18 11 16 1 16 2 0 6 -10 2 -25 -3 -34
-11 -17 -18 -64 -22 -64 -6 0 6 8 11 18 11 16 1 16 2 0 6 -10 2 -25 -3 -34
-11 -17 -18 -64 -22 -64 -6 0 6 8 11 18 11 16 1 16 2 0 6 -10 2 -25 -3 -34
-11 -17 -18 -64 -22 -64 -6 0 6 8 11 18 11 16 1 16 2 0 6 -10 2 -25 -3 -34
-11 -17 -18 -64 -22 -64 -6 0 6 8 11 18 11 16 1 16 2 0 6 -10 2 -25 -3 -34
-11 -17 -18 -64 -22 -64 -6 0 6 8 11 18 11 16 1 16 2 0 6 -10 2 -25 -3 -34
-11 -17 -18 -64 -22 -64 -6 0 6 8 11 18 11 16 1 16 2 0 6 -10 2 -25 -3 -34
-11 -17 -18 -64 -22 -64 -6 0 6 8 11 18 11 16 1 16 2 0 6 -10 2 -25 -3 -34
-11 -17 -18 -64 -22 -64 -6 0 6 8 11 18 11 16 1 16 2 0 6 -10 2 -25 -3 -34
-11 -17 -18 -64 -22 -64 -6 0 6 8 11 18 11 16 1 16 2 0 6 -10 2 -25 -3 -34
-11 -17 -18 -64 -22 -64 -6 0 6 8 11 18 11 16 1 16 2 0 6 -10 2 -25 -3 -34
-11 -17 -18 -64 -22 -64 -6 0 6 8 11 18 11 16 1 16 2 0 6 -10 2 -25 -3 -34
-11 -17 -18 -64 -22 -64 -6 0 6 8 11 18 11 16 1 16 2 0 6 -10 2 -25 -3 -34
-11 -17 -18 -64 -22 -64 -6 0 6 8 11 18 11 16 1 16 2 0 6 -10 2 -25 -3 -34
-11 -17 -18 -64 -22 -64 -6 0 6 8 11 18 11 16 1 16 2 0 6 -10 2 -25 -3 -34
-11 -17 -18 -64 -22 -64 -6 0 6 8 11 18 11 16 1 16 2 0 6 -10 2 -25 -3 -34
-11 -17 -18 -64 -22 -64 -6 0 6 8 11 18 11 16 1 16 2 0 6 -10 2 -25 -3 -34
-11 -17 -18 -64 -22 -64 -6 0 6 8 11 18 11 16 1 16 2 0 6 -10 2 -25 -3 -34
-11 -17 -18 -64 -22 -64 -6 0 6 8 11 18 11 16 1 16 2 0 6 -10 2 -25 -3 -34
-11 -17 -18 -64 -22 -64 -6 0 6 8 11 18 11 16 1 16 2 0 6 -10 2 -25 -3 -34
-11 -17 -18 -64 -22 -64 -6 0 6 8 11 18 11 16 1 16 2 0 6 -10 2 -25 -3 -34
-11 -17 -18 -64 -22 -64 -6 0 6 8 10 18 11 10 0 12 3 5 6 -7 2 -23 -3 -35 -11
-25 -18 -68 -21 -68 -6 0 6 8 10 18 11 10 0 12 3 5 6 -7 2 -23 -3 -35 -11 -25
-18 -68 -21 -68 -6 0 6 8 10 18 11 10 0 12 3 5 6 -7 2 -23 -3 -35 -11 -25 -18
-68 -21 -68 -6 0 6 8 10 18 11 10 0 12 3 5 6 -7 2 -23 -3 -35 -11 -25 -18 -68
-21 -68 -6 0 6 8 10 18 11 10 0 12 3 5 6 -7 2 -23 -3 -35 -11 -25 -18 -68 -21
-68 -6 0 6 8 10 18 11 10 0 12 3 5 6 -7 2 -23 -3 -35 -11 -25 -18 -68 -21 -68
-6 0 6 8 10 18 11 10 0 12 3 5 6 -7 2 -23 -3 -35 -11 -25 -18 -68 -21 -68 -6
0 6 8 10 18 11 10 0 12 3 5 6 -7 2 -23 -3 -35 -11 -25 -18 -68 -21 -68 -6 0 6
8 10 18 11 10 0 12 3 5 6 -7 2 -23 -3 -35 -11 -25 -18 -68 -21 -68 -6 0 6 8
10 18 11 10 0 12 3 5 6 -7 2 -23 -3 -35 -11 -25 -18 -68 -21 -68 -6 0 6 8 10
18 11 10 0 12 3 5 6 -7 2 -23 -3 -35 -11 -25 -18 -68 -21 -68 -6 0 6 8 10 18
11 10 0 12 3 5 6 -7 2 -23 -3 -35 -11 -25 -18 -68 -21 -68 -6 0 6 8 10 18 11
10 0 12 3 5 6 -7 2 -23 -3 -35 -11 -25 -18 -68 -21 -68 -6 0 6 8 10 18 11 10
0 12 3 5 6 -7 2 -23 -3 -35 -11 -25 -18 -68 -21 -68 -6 0 6 8 10 18 11 10 0
12 3 5 6 -7 2 -23 -3 -35 -11 -25 -18 -68 -21 -68 -6 0 6 8 10 18 11 10 0 12
3 5 6 -7 2 -23 -3 -35 -11 -25 -18 -68 -21 -68 -6 0 6 8 10 18 11 10 0 12 3 5
6 -7 2 -23 -3 -35 -11 -25 -18 -68 -21 -68 -6 0 6 8 10 18 11 10 0 12 3 5 6
-7 2 -23 -3 -35 -11 -25 -18 -68 -21 -68 -6 0 6 8 10 18 11 10 0 12 3 5 6 -7
2 -23 -3 -35 -11 -25 -18 -68 -21 -68 -6 0 6 8 10 18 11 10 0 12 3 5 6 -7 2
-23 -3 -35 -11 -25 -18 -68 -21 -68 -6 0 6 8 10 18 11 10 0 12 3 5 6 -7 2 -23
-3 -35 -11 -25 -18 -68 -21 -68 -6 0 6 8 10 18 11 10 0 12 3 5 6 -7 2 -23 -3
-35 -11 -25 -18 -68 -21 -68 -6 0 6 8 10 18 11 10 0 12 3 5 6 -7 2 -23 -3 -35
-11 -25 -18 -68 -21 -68 -6 0 6 8 10 18 11 10 0 12 3 5 6 -7 2 -23 -3 -35 -11
-25 -18 -68 -21 -68 -6 0 6 8 10 18 11 10 0 12 3 5 6 -7 2 -23 -3 -35 -11 -25
-18 -68 -21 -68 -6 0 6 8 10 18 11 10 0 12 3 5 6 -7 2 -23 -3 -35 -11 -25 -18
-68 -21 -68 -6 0 6 8 10 18 11 10 0 12 3 5 6 -7 2 -23 -3 -35 -11 -25 -18 -68
-21 -68 -6 0 6 8 10 18 11 10 0 12 3 5 6 -7 2 -23 -3 -35 -11 -25 -18 -68 -21
-68 -6 0 6 8 10 18 11 10 0 12 3 5 6 -7 2 -23 -3 -35 -11 -25 -18 -68 -21 -68
-6 0 6 8 10 18 11 10 0 12 3 5 6 -7 2 -23 -3 -35 -11 -25 -18 -68 -21 -68 -6
0 6 8 10 18 11 10 0 12 3 5 6 -7 2 -23 -3 -35 -11 -25 -18 -68 -21 -68 -6 0 6
8 10 18 11 10 0 12 3 5 6 -7 2 -23 -3 -35 -11 -25 -18 -68 -21 -68 -6 0 6 8
10 18 11 10 0 12 3 5 6 -7 2 -23 -3 -35 -11 -25 -18 -68 -21 -68 -6 0 6 8 10
18 11 10 0 12 3 5 6 -7 2 -23 -3 -35 -11 -25 -18 -68 -21 -68 -6 0 6 8 10 18
11 10 0 12 3 5 6 -7 2 -23 -3 -35 -11 -25 -18 -68 -21 -68 -6 0 6 8 10 18 11
10 0 12 3 5 6 -7 2 -23 -3 -35 -11 -25 -18 -68 -21 -68 -6 0 6 8 10 18 11 10
0 12 3 5 6 -7 2 -23 -3 -35 -11 -25 -18 -68 -21 -68 -6 0 6 8 10 18 11 10 0
12 3 5 6 -7 2 -23 -3 -35 -11 -25 -18 -68 -21 -68 -6 0 6 8 10 18 11 10 0 12
3 5 6 -7 2 -23 -3 -35 -11 -25 -18 -68 -21 -68 -6 0 6 8 10 18 11 10 0 12 3 5
6 -7 2 -23 -3 -35 -11 -25 -18 -68 -21 -68 -6 0 6 8 10 18 11 10 0 12 3 5 6
-7 2 -23 -3 -35 -11 -25 -18 -68 -21 -68 -6 0 6 8 10 18 11 10 0 12 3 5 6 -7
2 -23 -3 -35 -11 -25 -18 -68 -21 -68 -6 0 6 8 10 18 11 10 0 12 3 5 6 -7 2
-23 -3 -35 -11 -25 -18 -68 -21 -68 -6 0 6 8 10 18 11 10 0 12 3 5 6 -7 2 -23
-3 -35 -11 -25 -18 -68 -21 -68 -6 0 6 8 10 18 11 10 0 12 3 5 6 -7 2 -23 -3
-35 -11 -25 -18 -68 -21 -68 -6 0 6 8 10 18 11 10 0 12 3 5 6 -7 2 -23 -3 -35
-11 -25 -18 -68 -21 -68 -6 0 6 8 10 18 11 10 0 12 3 5 6 -7 2 -23 -3 -35 -11
-25 -18 -68 -21 -68 -6 0 6 8 10 18 11 10 0 12 3 5 6 -7 2 -23 -3 -35 -11 -25
-18 -68 -21 -68 -6 0 6 8 10 18 11 10 0 12 3 5 6 -7 2 -23 -3 -35 -11 -25 -18
-68 -21 -68 -6 0 6 8 10 18 11 10 0 12 3 5 6 -7 2 -23 -3 -35 -11 -25 -18 -68
-21 -68 -6 0 6 8 10 18 11 10 0 12 3 5 6 -7 2 -23 -3 -35 -11 -25 -18 -68 -21
-68 -6 0 6 8 10 18 11 10 0 12 3 5 6 -7 2 -23 -3 -35 -11 -25 -18 -68 -21 -68
-6 0 6 8 10 18 11 10 0 12 3 5 6 -7 2 -23 -3 -35 -11 -25 -18 -68 -21 -68 -6
0 6 8 10 18 11 10 0 12 3 5 6 -7 2 -23 -3 -35 -11 -25 -18 -68 -21 -68 -6 0 6
8 10 18 11 10 0 12 3 5 6 -7 2 -23 -3 -35 -11 -25 -18 -68 -21 -68 -6 0 6 8
11 18 11 16 1 16 2 0 6 -10 2 -25 -3 -34 -11 -17 -18 -64 -22 -64 -6 0 6 8 11
18 11 16 1 16 2 0 6 -10 2 -25 -3 -34 -11 -17 -18 -64 -22 -64 -6 0 6 8 11 18
11 16 1 16 2 0 6 -10 2 -25 -3 -34 -11 -17 -18 -64 -22 -64 -6 0 6 8 11 18 11
16 1 16 2 0 6 -10 2 -25 -3 -34 -11 -17 -18 -64 -22 -64 -6 0 6 8 11 18 11 16
1 16 2 0 6 -10 2 -25 -3 -34 -11 -17 -18 -64 -22 -64 -6 0 6 8 11 18 11 16 1
16 2 0 6 -10 2 -25 -3 -34 -11 -17 -18 -64 -22 -64 -6 0 6 8 11 18 11 16 1 16
2 0 6 -10 2 -25 -3 -34 -11 -17 -18 -64 -22 -64 -6 0 6 8 11 18 11 16 1 16 2
0 6 -10 2 -25 -3 -34 -11 -17 -18 -64 -22 -64 -6 0 6 8 11 18 11 16 1 16 2 0
6 -10 2 -25 -3 -34 -11 -17 -18 -64 -22 -64 -6 0 6 8 11 18 11 16 1 16 2 0 6
-10 2 -25 -3 -34 -11 -17 -18 -64 -22 -64 -6 0 6 8 11 18 11 16 1 16 2 0 6
-10 2 -25 -3 -34 -11 -17 -18 -64 -22 -64 -6 0 6 8 11 18 11 16 1 16 2 0 6
-10 2 -25 -3 -34 -11 -17 -18 -64 -22 -64 -6 0 6 8 11 18 11 16 1 16 2 0 6
-10 2 -25 -3 -34 -11 -17 -18 -64 -22 -64 -6 0 6 8 11 18 11 16 1 16 2 0 6
-10 2 -25 -3 -34 -11 -17 -18 -64 -22 -64 -6 0 6 8 11 18 11 16 1 16 2 0 6
-10 2 -25 -3 -34 -11 -17 -18 -64 -22 -64 -6 0 6 8 11 18 11 16 1 16 2 0 6
-10 2 -25 -3 -34 -11 -17 -18 -64 -22 -64 -6 0 6 8 11 18 11 16 1 16 2 0 6
-10 2 -25 -3 -34 -11 -17 -18 -64 -22 -64 -6 0 6 8 11 18 11 16 1 16 2 0 6
-10 2 -25 -3 -34 -11 -17 -18 -64 -22 -64 -6 0 6 8 11 18 11 16 1 16 2 0 6
-10 2 -25 -3 -34 -11 -17 -18 -64 -22 -64 -6 0 6 8 11 18 11 16 1 16 2 0 6
-10 2 -25 -3 -34 -11 -17 -18 -64 -22 -64 -6 0 6 8 11 18 11 16 1 16 2 0 6
-10 2 -25 -3 -34 -11 -17 -18 -64 -22 -64 -6 0 6 8 11 18 11 16 1 16 2 0 6
-10 2 -25 -3 -34 -11 -17 -18 -64 -22 -64 -6 0 6 8 11 18 11 16 1 16 2 0 6
-10 2 -25 -3 -34 -11 -17 -18 -64 -22 -64 -6 0 6 8 11 18 11 16 1 16 2 0 6
-10 2 -25 -3 -34 -11 -17 -18 -64 -22 -64 -6 0 6 8 11 18 11 16 1 16 2 0 6
-10 2 -25 -3 -34 -11 -17 -18 -64 -22 -64 -6 0 6 8 11 18 11 16 1 16 2 0 6
-10 2 -25 -3 -34 -11 -17 -18 -64 -22 -64 -6 0 6 8 11 18 11 16 1 16 2 0 6
-10 2 -25 -3 -34 -11 -17 -17 -64 -22 -64 -7 0 5 10 12 23 14 13 3 8 5 -16 6
-25 1 -36 -3 -35 -11 2 -8 -9 -14 -24 -16 -33 -4 -38 15 -5 21 12 2 -17 5 -64
6 -112 1 -297 59 -413 129 -105 63 -234 185 -300 286 -56 85 -126 238 -126
275 0 11 -4 21 -9 21 -31 0 -32 190 -29 4170 2 2186 7 3984 11 3995 5 11 0 7
-9 -10 -15 -25 -19 -27 -22 -12 -4 19 25 60 37 52 4 -2 7 5 7 15 0 15 -3 17
-15 7 -12 -10 -13 -7 -7 18 13 52 90 197 122 232 17 18 29 33 27 33 -3 0 5 9
18 20 13 10 21 19 17 20 -12 0 176 176 222 207 25 16 74 44 109 62 67 33 232
93 247 90 5 -1 16 1 24 4 34 14 117 15 1366 13 925 -1 1305 -4 1315 -12z"/>
<path d="M2075 10233 c-170 -40 -312 -172 -356 -329 -18 -65 -19 -116 -19
-921 l0 -853 5158 0 c2836 0 5162 4 5168 8 16 10 12 584 -4 590 -7 2 -12 14
-12 27 0 37 -65 138 -121 189 -64 57 -154 100 -239 115 -47 8 -1002 11 -3360
11 -1811 0 -3296 2 -3298 5 -3 3 -6 170 -7 372 -1 203 -5 391 -10 418 -11 71
-60 169 -114 226 -52 55 -153 119 -188 119 -13 0 -23 4 -23 9 0 6 -8 11 -17
12 -39 4 -2539 6 -2558 2z"/>
<path d="M1255 10079 c-4 -6 -5 -12 -2 -15 2 -3 7 2 10 11 7 17 1 20 -8 4z"/>
<path d="M1705 7642 c-3 -8 -5 -1290 -5 -2850 0 -3054 -3 -2874 51 -2987 24
-49 132 -167 160 -173 8 -2 19 -10 25 -17 6 -8 14 -12 18 -8 4 4 10 2 14 -4 4
-6 16 -13 27 -15 11 -1 22 -6 25 -10 21 -27 281 -28 4890 -26 l4745 3 73 30
c106 43 182 108 206 176 16 44 51 105 76 129 5 5 8 15 20 70 12 53 9 5594 -2
5601 -6 4 -6 14 1 27 17 31 14 62 -6 63 -10 1 -2334 2 -5165 3 -4313 1 -5149
-1 -5153 -12z"/>
</g>
</svg>
